<svg width="1040" height="1040" viewBox="0 0 1040 1040" fill="none" xmlns="http://www.w3.org/2000/svg">
<rect width="1040" height="1040" fill="#993510"/>
<path d="M232.947 458.722C237.64 456.932 241.911 455.974 245.761 455.849C249.611 455.724 253.206 456.167 256.548 457.176C258.683 457.84 260.888 459.216 263.163 461.305C265.511 463.231 267.334 465.895 268.632 469.298C270.019 472.934 269.923 476.734 268.344 480.696C266.765 484.658 263.805 487.468 259.465 489.124C254.655 490.959 250.291 491.146 246.374 489.684C242.573 488.177 239.8 485.136 238.055 480.561C236.757 477.159 236.568 473.67 237.488 470.093C238.363 466.399 240.607 463.124 244.221 460.267C243.69 459.932 242.969 459.804 242.058 459.883C241.22 459.799 240.156 460.004 238.866 460.496C236.871 461.257 235.341 462.177 234.274 463.256C233.207 464.335 232.406 465.581 231.871 466.995C231.307 468.688 231.18 470.82 231.488 473.39C231.797 475.96 232.847 479.591 234.637 484.284L243.634 507.864L262.463 500.68L263.806 504.199L244.977 511.383L271.498 580.892C273.691 586.64 276.517 589.996 279.976 590.961C283.391 591.809 287.444 591.337 292.137 589.547L293.546 593.242C290.217 594.378 285.597 596.007 279.687 598.127C273.731 600.131 267.469 602.386 260.899 604.892C256.207 606.683 251.618 608.568 247.132 610.548C242.602 612.411 239.186 613.849 236.884 614.862L235.474 611.166C239.111 609.779 241.297 607.937 242.034 605.64C242.887 603.298 242.374 599.664 240.494 594.737L213.302 523.469L202.744 527.497L201.401 523.978L211.959 519.949C209.318 513.028 207.536 507.123 206.611 502.234C205.687 497.346 205.5 492.982 206.051 489.143C206.675 485.142 208.02 481.269 210.085 477.525C211.888 474.149 214.8 470.686 218.821 467.136C222.842 463.586 227.551 460.781 232.947 458.722ZM326.254 473.317C330.477 471.705 334.12 471.39 337.182 472.372C340.2 473.237 342.715 474.898 344.728 477.355C346.696 479.695 348.195 482.214 349.224 484.913C351.239 490.192 351.325 494.997 349.483 499.328C347.714 503.497 344.425 506.499 339.615 508.335C334.453 510.304 330.075 510.63 326.482 509.314C323.006 507.952 320.552 505.394 319.119 501.64C317.598 497.652 317.165 494.054 317.823 490.846C318.598 487.594 319.94 484.595 321.85 481.851C319.738 482.657 318.018 483.783 316.689 485.231C315.505 486.355 314.469 487.691 313.581 489.239C312.694 490.787 312.049 492.444 311.648 494.21C311.202 495.859 310.999 497.616 311.039 499.482C311.196 501.304 311.611 503.094 312.282 504.854L332.424 557.645C334.573 563.276 337.201 566.641 340.308 567.74C343.415 568.839 347.667 568.359 353.063 566.3L354.473 569.996C351.73 570.908 347.638 572.335 342.197 574.276C336.829 576.056 331.329 578.02 325.698 580.169C320.419 582.183 315.126 584.337 309.819 586.63C304.467 588.807 300.464 590.468 297.811 591.615L296.401 587.92C300.038 586.532 302.224 584.69 302.961 582.393C303.814 580.052 303.301 576.417 301.421 571.49L280.137 515.708C278.123 510.428 275.942 506.826 273.594 504.899C271.202 502.855 268.129 502.55 264.375 503.982L262.965 500.287C266.853 499.206 270.557 497.995 274.076 496.652C279.942 494.414 285.33 492.157 290.24 489.88C295.223 487.441 299.728 484.983 303.755 482.506L308.589 495.176C308.951 491.544 309.888 488.364 311.4 485.636C312.868 482.792 314.831 480.363 317.289 478.35C319.863 476.293 322.852 474.615 326.254 473.317ZM388.491 449.57C398.814 445.631 408.073 445.593 416.266 449.455C424.532 453.155 431.373 462.103 436.789 476.298L381.71 497.313L380.083 494.104L409.821 482.757C407.745 476.964 405.497 471.774 403.075 467.188C400.608 462.485 398.17 458.913 395.761 456.472C393.351 454.032 391.032 453.237 388.803 454.087C385.636 455.296 384.017 458.803 383.948 464.608C383.833 470.296 385.788 479.294 389.812 491.601L391.053 492.74C391.383 493.958 391.772 495.154 392.22 496.327C392.667 497.5 393.137 498.732 393.63 500.022C396.763 508.234 400.199 514.247 403.939 518.062C407.797 521.831 411.586 524.014 415.308 524.61C419.147 525.161 422.65 524.832 425.817 523.624C427.46 522.997 429.306 522.024 431.356 520.704C433.523 519.34 435.642 517.321 437.714 514.65C439.741 511.86 441.373 508.214 442.611 503.71L446.006 503.624C446.388 508.854 445.891 514.419 444.514 520.32C443.21 526.059 440.676 531.394 436.912 536.324C433.104 541.137 427.681 544.886 420.642 547.571C413.134 550.436 405.689 551.53 398.308 550.852C391.044 550.129 384.25 546.942 377.928 541.291C371.606 535.64 366.184 526.89 361.663 515.041C357.366 503.779 355.869 493.868 357.172 485.307C358.43 476.629 361.835 469.35 367.386 463.469C373.009 457.426 380.044 452.793 388.491 449.57ZM494.278 409.207C499.674 407.148 504.166 406.241 507.753 406.485C511.413 406.567 514.445 407.291 516.848 408.659C519.413 410.099 521.778 412.423 523.942 415.629C526.106 418.835 528.329 423.429 530.612 429.412L548.807 477.1C550.687 482.027 552.667 485.102 554.746 486.325C556.943 487.502 559.859 487.398 563.496 486.01L564.906 489.705C562.515 490.483 558.892 491.731 554.037 493.449C549.255 495.005 544.577 496.656 540.002 498.401C535.074 500.281 530.309 502.234 525.706 504.259C521.059 506.166 517.584 507.627 515.282 508.639L513.872 504.944C516.923 503.78 518.698 502.094 519.2 499.887C519.702 497.68 519.013 494.113 517.133 489.185L495.312 431.995C494.372 429.532 493.295 427.591 492.082 426.172C490.869 424.753 489.46 423.88 487.857 423.551C486.37 423.177 484.571 423.393 482.46 424.199C480.348 425.005 478.496 426.316 476.905 428.133C475.431 429.905 474.429 432.034 473.899 434.521C473.442 436.845 473.684 439.239 474.624 441.703L495.84 497.31C497.72 502.237 499.583 505.356 501.427 506.668C503.389 507.936 505.836 508.01 508.769 506.891L510.179 510.586C507.906 511.319 504.576 512.455 500.191 513.994C495.761 515.416 491.258 516.999 486.683 518.745C481.755 520.625 476.814 522.645 471.859 524.804C466.86 526.846 463.092 528.418 460.556 529.52L459.146 525.825C462.782 524.437 464.969 522.595 465.705 520.298C466.559 517.956 466.046 514.322 464.166 509.395L442.882 453.612C440.868 448.333 438.687 444.731 436.339 442.804C433.947 440.76 430.873 440.455 427.119 441.887L425.709 438.192C429.598 437.111 433.302 435.9 436.821 434.557C442.687 432.319 448.075 430.061 452.985 427.785C457.968 425.346 462.473 422.888 466.5 420.411L471.334 433.08C472.359 427.314 474.837 422.538 478.769 418.753C482.773 414.806 487.943 411.624 494.278 409.207ZM578.039 377.248C583.201 375.279 587.978 374.061 592.369 373.595C596.761 373.129 600.398 373.152 603.282 373.665C607.165 374.333 610.65 375.893 613.735 378.344C616.893 380.633 619.256 383.831 620.822 387.937C622.658 392.747 622.618 397.398 620.704 401.892C618.79 406.385 615.369 409.572 610.442 411.452C605.28 413.421 600.732 413.477 596.798 411.618C592.863 409.759 590 406.484 588.21 401.791C586.509 397.333 586.485 393.042 588.136 388.918C589.861 384.631 592.457 381.222 595.925 378.689C594.88 378.415 593.704 378.327 592.397 378.422C591.162 378.356 589.723 378.636 588.081 379.263C583.858 380.874 580.889 383.485 579.176 387.095C577.535 390.544 576.735 394.612 576.777 399.3C576.936 403.943 577.617 408.722 578.821 413.639C580.025 418.555 581.477 423.242 583.178 427.7C586.311 435.912 589.865 441.88 593.84 445.605C597.815 449.33 601.839 451.423 605.912 451.885C609.986 452.346 613.723 451.928 617.125 450.63C618.768 450.004 620.614 449.03 622.664 447.711C624.831 446.346 626.95 444.328 629.022 441.656C631.049 438.867 632.681 435.22 633.919 430.716L637.314 430.631C637.696 435.86 637.199 441.426 635.822 447.327C634.518 453.066 631.984 458.4 628.22 463.33C624.412 468.143 618.989 471.892 611.95 474.578C604.09 477.577 596.352 478.782 588.736 478.194C581.237 477.561 574.209 474.463 567.652 468.902C561.213 463.295 555.733 454.568 551.212 442.719C546.915 431.457 545.418 421.546 546.721 412.985C547.979 404.307 551.383 397.028 556.934 391.147C562.558 385.104 569.593 380.471 578.039 377.248ZM640.495 303.223L662.249 360.237C663.274 354.47 665.752 349.694 669.684 345.91C673.688 341.963 678.858 338.781 685.193 336.364C690.589 334.305 695.081 333.397 698.668 333.641C702.328 333.723 705.36 334.448 707.763 335.816C710.328 337.256 712.693 339.579 714.857 342.785C717.021 345.991 719.244 350.586 721.527 356.569L739.722 404.257C741.602 409.184 743.582 412.259 745.661 413.481C747.858 414.659 750.774 414.554 754.411 413.166L755.821 416.862C753.43 417.64 749.807 418.888 744.952 420.606C740.17 422.161 735.492 423.812 730.917 425.558C725.989 427.438 721.224 429.39 716.621 431.415C711.974 433.323 708.499 434.783 706.197 435.796L704.787 432.1C707.838 430.937 709.613 429.251 710.115 427.044C710.617 424.836 709.928 421.269 708.048 416.342L686.227 359.152C685.287 356.688 684.21 354.747 682.997 353.329C681.784 351.91 680.375 351.036 678.772 350.707C677.285 350.334 675.486 350.55 673.375 351.356C671.263 352.161 669.411 353.472 667.82 355.289C666.346 357.061 665.344 359.191 664.814 361.677C664.357 364.002 664.599 366.396 665.539 368.86L686.755 424.466C688.635 429.393 690.498 432.513 692.342 433.825C694.304 435.092 696.751 435.166 699.684 434.047L701.094 437.743C698.821 438.476 695.491 439.612 691.106 441.151C686.676 442.572 682.173 444.156 677.598 445.902C672.67 447.781 667.729 449.801 662.774 451.96C657.775 454.002 654.007 455.575 651.471 456.677L650.061 452.981C653.697 451.594 655.884 449.751 656.62 447.455C657.474 445.113 656.961 441.479 655.081 436.551L616.878 336.425C614.863 331.145 612.682 327.543 610.335 325.616C607.942 323.572 604.869 323.267 601.115 324.699L599.705 321.004C603.593 319.923 607.297 318.712 610.816 317.369C616.682 315.131 622.07 312.874 626.98 310.597C631.963 308.158 636.468 305.7 640.495 303.223ZM768.453 380.191C773.967 378.087 778.741 377.744 782.776 379.161C786.766 380.461 789.723 383.633 791.648 388.678C793.573 393.722 793.503 398.117 791.437 401.861C789.327 405.489 785.515 408.354 780.001 410.458C774.37 412.607 769.56 413.031 765.57 411.731C761.652 410.269 758.731 407.016 756.806 401.972C754.881 396.927 754.915 392.614 756.908 389.031C758.974 385.286 762.822 382.34 768.453 380.191ZM439.552 630.237C444.714 628.268 449.491 627.05 453.882 626.584C458.274 626.118 461.911 626.141 464.794 626.654C468.678 627.322 472.163 628.882 475.248 631.333C478.406 633.622 480.769 636.82 482.335 640.926C484.17 645.736 484.131 650.387 482.217 654.881C480.303 659.374 476.882 662.561 471.955 664.441C466.793 666.41 462.245 666.466 458.31 664.607C454.376 662.748 451.513 659.473 449.723 654.78C448.022 650.322 447.997 646.031 449.649 641.907C451.373 637.62 453.97 634.211 457.438 631.678C456.393 631.405 455.217 631.316 453.91 631.411C452.675 631.345 451.236 631.625 449.594 632.252C445.371 633.863 442.402 636.474 440.689 640.084C439.048 643.533 438.248 647.601 438.29 652.289C438.449 656.932 439.13 661.712 440.334 666.628C441.538 671.544 442.99 676.231 444.691 680.689C447.824 688.901 451.378 694.869 455.353 698.594C459.327 702.319 463.351 704.412 467.425 704.874C471.498 705.335 475.236 704.917 478.638 703.619C480.281 702.993 482.127 702.019 484.177 700.7C486.344 699.335 488.463 697.317 490.535 694.645C492.562 691.856 494.194 688.209 495.432 683.705L498.827 683.62C499.209 688.849 498.712 694.415 497.335 700.316C496.031 706.055 493.497 711.389 489.733 716.319C485.925 721.132 480.502 724.881 473.463 727.567C465.603 730.566 457.865 731.771 450.249 731.183C442.75 730.55 435.722 727.453 429.165 721.891C422.726 716.284 417.245 707.557 412.725 695.708C408.427 684.446 406.93 674.535 408.233 665.974C409.492 657.296 412.896 650.017 418.447 644.136C424.071 638.093 431.106 633.46 439.552 630.237ZM537.737 701.632C532.224 703.736 527.304 704.403 522.979 703.634C518.654 702.866 515.021 701.093 512.081 698.318C509.258 695.498 507.13 692.211 505.698 688.457C503.818 683.529 503.41 679.116 504.475 675.215C505.496 671.197 507.408 667.578 510.211 664.358C513.087 660.976 516.273 657.879 519.769 655.067C523.265 652.255 526.549 649.591 529.621 647.075C532.765 644.397 535.139 641.811 536.741 639.318C538.299 636.708 538.563 634.054 537.533 631.356L531.558 615.694C530.841 613.817 529.706 611.899 528.152 609.938C526.715 607.933 524.803 606.445 522.417 605.474C520.03 604.503 517.078 604.689 513.558 606.032C511.681 606.748 509.975 607.735 508.439 608.993C506.975 610.089 505.778 611.352 504.845 612.783C509.533 612.742 513.353 613.771 516.304 615.87C519.21 617.852 521.29 620.485 522.544 623.77C524.334 628.463 524.102 632.785 521.846 636.736C519.591 640.688 516.235 643.514 511.777 645.215C507.084 647.005 502.888 646.927 499.188 644.978C495.488 643.03 492.81 639.886 491.154 635.545C489.766 631.909 489.482 628.523 490.302 625.388C491.194 622.091 493.056 618.693 495.887 615.193C498.645 611.856 502.332 608.837 506.945 606.136C511.515 603.318 516.497 600.879 521.894 598.82C527.642 596.627 533.204 595.176 538.578 594.47C543.908 593.646 549.027 594.38 553.934 596.674C557.382 598.315 560.197 600.937 562.378 604.54C564.559 608.143 566.813 612.994 569.141 619.094L587.134 666.254C588.253 669.187 589.19 671.114 589.945 672.036C590.817 672.913 591.781 673.15 592.837 672.747C593.776 672.389 594.543 671.76 595.141 670.86C595.856 669.915 596.512 668.993 597.109 668.093L600.01 670.413C598.28 673.627 595.68 676.5 592.212 679.033C588.861 681.521 585.073 683.571 580.85 685.182C575.806 687.107 571.652 688.02 568.389 687.921C565.198 687.66 562.636 686.756 560.702 685.21C558.84 683.501 557.403 681.496 556.391 679.194C555.404 684.005 553.526 688.418 550.757 692.431C548.06 696.282 543.72 699.349 537.737 701.632ZM549.083 681.176C550.374 680.684 551.421 680.082 552.225 679.372C553.102 678.5 553.845 677.276 554.453 675.7L540.286 638.571C540.047 640.409 539.514 642.359 538.688 644.421C537.935 646.322 537.145 648.303 536.319 650.365C535.494 652.427 534.771 654.584 534.152 656.836C533.65 659.044 533.436 661.477 533.511 664.137C533.657 666.634 534.312 669.408 535.476 672.458C537.177 676.916 539.207 679.77 541.565 681.021C543.996 682.109 546.502 682.161 549.083 681.176ZM599.363 519.066C604.056 517.276 608.327 516.318 612.177 516.193C616.026 516.068 619.622 516.51 622.964 517.52C625.099 518.184 627.304 519.56 629.579 521.648C631.927 523.575 633.75 526.239 635.048 529.641C636.435 533.278 636.339 537.077 634.76 541.04C633.181 545.002 630.221 547.811 625.881 549.467C621.071 551.303 616.707 551.489 612.789 550.027C608.989 548.521 606.216 545.48 604.471 540.905C603.172 537.503 602.984 534.013 603.904 530.437C604.779 526.743 607.023 523.468 610.637 520.611C610.106 520.276 609.385 520.148 608.474 520.226C607.636 520.143 606.572 520.347 605.281 520.84C603.287 521.601 601.757 522.521 600.69 523.599C599.623 524.678 598.822 525.925 598.287 527.339C597.723 529.032 597.596 531.164 597.904 533.734C598.213 536.304 599.263 539.935 601.053 544.628L610.05 568.208L628.879 561.024L630.222 564.543L611.393 571.727L637.913 641.235C640.107 646.984 642.933 650.34 646.392 651.305C649.806 652.152 653.86 651.681 658.552 649.891L659.962 653.586C656.633 654.722 652.013 656.35 646.103 658.471C640.147 660.474 633.885 662.729 627.315 665.236C622.623 667.026 618.034 668.912 613.548 670.892C609.018 672.755 605.602 674.193 603.3 675.205L601.89 671.51C605.527 670.122 607.713 668.28 608.45 665.983C609.303 663.642 608.79 660.007 606.91 655.08L579.718 583.812L569.16 587.841L567.817 584.322L578.375 580.293C575.734 573.372 573.952 567.467 573.027 562.578C572.103 557.69 571.916 553.326 572.467 549.487C573.091 545.486 574.436 541.613 576.501 537.868C578.304 534.493 581.216 531.03 585.237 527.48C589.258 523.93 593.967 521.125 599.363 519.066ZM672.16 541.486C682.483 537.547 691.742 537.509 699.935 541.371C708.201 545.071 715.042 554.019 720.458 568.214L665.379 589.229L663.751 586.02L693.49 574.673C691.414 568.88 689.165 563.69 686.744 559.104C684.277 554.401 681.839 550.829 679.43 548.388C677.02 545.948 674.701 545.153 672.472 546.003C669.305 547.212 667.686 550.719 667.616 556.524C667.502 562.212 669.457 571.21 673.481 583.517L674.722 584.656C675.052 585.874 675.441 587.07 675.888 588.243C676.336 589.416 676.806 590.648 677.298 591.938C680.432 600.15 683.868 606.163 687.608 609.977C691.466 613.747 695.255 615.93 698.977 616.525C702.815 617.077 706.319 616.748 709.486 615.539C711.129 614.913 712.975 613.94 715.025 612.62C717.192 611.255 719.311 609.237 721.383 606.565C723.41 603.776 725.042 600.129 726.28 595.625L729.674 595.54C730.057 600.769 729.56 606.335 728.183 612.236C726.878 617.975 724.344 623.309 720.581 628.24C716.773 633.052 711.349 636.802 704.311 639.487C696.803 642.352 689.358 643.445 681.976 642.767C674.712 642.045 667.919 638.858 661.597 633.207C655.274 627.556 649.853 618.806 645.332 606.957C641.035 595.695 639.538 585.784 640.841 577.223C642.099 568.545 645.504 561.265 651.055 555.385C656.678 549.342 663.713 544.709 672.16 541.486ZM670.839 484.134C673.901 485.116 676.037 487.191 677.246 490.358C678.571 493.481 678.707 496.654 677.653 499.879C676.671 502.941 675.108 505.89 672.964 508.723C670.892 511.395 668.391 514.702 665.46 518.642C662.483 522.466 659.134 527.776 655.41 534.572L652.87 533.727C653.721 525.742 653.964 519.333 653.598 514.5C653.188 509.55 652.87 505.37 652.644 501.962C652.419 498.554 652.915 495.274 654.131 492.122C655.158 489.177 657.282 486.82 660.506 485.053C663.801 483.124 667.246 482.817 670.839 484.134Z" fill="white"/>
</svg>
